<svg width="512" height="512" viewBox="0 0 512 512" fill="none" xmlns="http://www.w3.org/2000/svg">
<path d="M255.5 124C328.125 124 387 182.875 387 255.5C387 328.125 328.125 387 255.5 387C182.875 387 124 328.125 124 255.5C124 182.875 182.875 124 255.5 124ZM255 171C208.056 171 170 209.056 170 256C170 302.944 208.056 341 255 341C301.944 341 340 302.944 340 256C340 209.056 301.944 171 255 171Z" fill="white"/>
<circle cx="255.689" cy="255.689" r="28.6885" fill="#00BBFF"/>
<rect x="357.66" y="81.3019" width="17.434" height="174.34" rx="8.71698" fill="white"/>
<circle cx="367" cy="62" r="33" fill="white"/>
</svg>
